<svg xmlns="http://www.w3.org/2000/svg" viewBox="0 0 138.83 34.45"><defs><style>.cls-1,.cls-2{fill:#fff;}.cls-2{fill-rule:evenodd;}</style></defs><g id="Layer_2" data-name="Layer 2"><g id="Layer_1-2" data-name="Layer 1"><g id="logo-red"><path id="Path_4433" data-name="Path 4433" class="cls-1" d="M28.7,6.79h-.32A1.41,1.41,0,0,0,27.2,7.86C25.09,16,20.88,22.2,15.77,24.36c4.67-.63,8.79-3.7,11.56-8.23a24.57,24.57,0,0,1-4.57,9.1,17.52,17.52,0,0,1-7.23,1.57c-5.4,0-10.36-2.51-14.33-6.75a.83.83,0,0,0-.52-.25H.54l-.12,0h0l-.13.05h0l-.12.07a.71.71,0,0,0-.15.15A21,21,0,0,0,15.29,30.68a13.72,13.72,0,0,1-10.1-.35,14.94,14.94,0,0,0,2.92,2.4h0l.22.13,0,0,.21.12.05,0,.2.11.05,0,.2.1.07,0,.19.09.07,0,.19.08.06,0,.2.08.05,0c.3.12.6.23.91.32l.09,0,.16.05.12,0,.15,0,.13,0,.14,0,.14,0,.13,0,.15,0,.13,0,.15,0,.13,0,.15,0,.13,0h.16l.12,0h.87c5.7,0,10.71-4.83,13.55-12.11h0A37.9,37.9,0,0,0,29.87,9.62V9.4c0-.3,0-.59,0-.89V8.28A1.48,1.48,0,0,0,28.7,6.79"/><path id="Path_4434" data-name="Path 4434" class="cls-1" d="M0,20.1A.67.67,0,0,1,.16,20a.77.77,0,0,1,1,.1c4,4.23,8.94,6.75,14.33,6.75a18.73,18.73,0,0,0,11.89-4.47,24.55,24.55,0,0,1-4.73,7.82,18.8,18.8,0,0,1-5,.68C10.31,30.84,3.82,26.57,0,20.1"/><path id="Path_4435" data-name="Path 4435" class="cls-1" d="M29.88,8.51V8.26a1.58,1.58,0,0,0-.34-1h0a1.37,1.37,0,0,0-.16-.18l-.06,0a.71.71,0,0,0-.14-.1l-.12-.06L29,6.85a1,1,0,0,0-.25-.06.81.81,0,0,0-.22,0h-.17A1.43,1.43,0,0,0,27.2,7.87c-2.11,8.16-7,14-11.43,16.49,4.67-.62,8.79-3.7,11.56-8.22a23.45,23.45,0,0,1-6.72,11.35,15.41,15.41,0,0,1-5.3.94c-5.85,0-11.1-3.35-14.61-8.62A.77.77,0,0,0,.15,20,1,1,0,0,0,0,20.1,21.08,21.08,0,0,0,15.28,30.68a13.69,13.69,0,0,1-10.09-.35c.2.21.4.4.6.6h0l.14.13.29.26.15.12c.1.1.21.19.32.28l0,0A14.26,14.26,0,0,0,8,32.67l.12.07.33.2.18.1.31.17.21.11.3.14.23.1.29.12.25.1.28.1.27.09.27.08.29.08.26.06.3.07.25,0,.33.06.23,0,.38,0,.19,0h.58a12.12,12.12,0,0,0,8.82-4.29h0l.53-.6.1-.11.5-.62a1.47,1.47,0,0,1,.1-.13l.47-.64.11-.16.44-.66.12-.18c.14-.22.27-.45.41-.68l.12-.2.38-.7.12-.22.36-.72.12-.23c.11-.25.23-.5.34-.76a1,1,0,0,1,.07-.15h0a37,37,0,0,0,2.85-12.87v0c0-.15,0-.31,0-.46s0-.22,0-.33c0-.4,0-.8,0-1.2"/><path id="Path_4436" data-name="Path 4436" class="cls-1" d="M5.18,4.09s17.87,1.08,10.3,20c0,0,27.9-26.6-10.3-20"/><path id="Path_4437" data-name="Path 4437" class="cls-2" d="M38,22h4.44c.84,0,1.84.32,1.84,1.6a1.55,1.55,0,0,1-1.46,1.64H38ZM34.55,32.34H38v-4.7h4.33c1.07,0,1.85.44,1.85,2.25a4.68,4.68,0,0,0,.34,2.45h3.8a4.75,4.75,0,0,1-.66-2.78c0-1.26-.23-3.2-1.76-3.43v0A2.94,2.94,0,0,0,48,23c0-1.32-.6-3.49-4.16-3.49H34.55Z"/><path id="Path_4438" data-name="Path 4438" class="cls-2" d="M57.64,27.37h-4l2-5.08Zm2,5h3.76L57.73,19.52h-4.2L47.89,32.34h3.75l1-2.64h5.91Z"/><path id="Path_4439" data-name="Path 4439" class="cls-1" d="M67.34,25V19.52H63.85V32.34h3.49V28.53l2-1.74,4.37,5.55h4.7L72.1,24.67,78,19.52H73.3Z"/><path id="Path_4440" data-name="Path 4440" class="cls-2" d="M83.63,26.85H88.4c1.23,0,1.86.54,1.86,1.55A1.38,1.38,0,0,1,89,29.9a1.31,1.31,0,0,1-.28,0H83.63Zm-3.49,5.5h9.15c3.88,0,4.67-2.17,4.67-3.88a3,3,0,0,0-2.28-3.11v0a2.6,2.6,0,0,0,1.7-2.56c0-2.38-1.74-3.24-3.61-3.24H80.13Zm3.49-10.49H88c1.44,0,1.8.57,1.8,1.38a1.21,1.21,0,0,1-1,1.38,1,1,0,0,1-.3,0H83.63Z"/><path id="Path_4441" data-name="Path 4441" class="cls-2" d="M102.75,27.37h-4l2-5.08Zm2,5h3.76l-5.64-12.82h-4.2L93,32.34h3.75l1.05-2.64h5.9Z"/><path id="Path_4442" data-name="Path 4442" class="cls-1" d="M119.77,28.46h0L113,19.52h-4V32.34h3.38V23.4h0l7,9h3.79V19.52h-3.37Z"/><path id="Path_4443" data-name="Path 4443" class="cls-1" d="M127.72,25V19.52h-3.48V32.34h3.48V28.53l2-1.74,4.37,5.55h4.71l-6.34-7.67,5.88-5.15h-4.68Z"/><path id="Path_4444" data-name="Path 4444" class="cls-1" d="M34.55,7.08H36v4.06c.06.42.19.51.65.51h2.15c.45,0,.57-.09.64-.51v-.42H38V9.24H41v1.48H41V11a2,2,0,0,1-1.81,2.2,1.77,1.77,0,0,1-.46,0H36.82a2,2,0,0,1-2.26-1.75,2.26,2.26,0,0,1,0-.45Zm1.45,7h1.48v1.5H36Zm2.09,0h1.49v1.5H38.1Z"/><path id="Path_4445" data-name="Path 4445" class="cls-1" d="M41,9.24h1.83V5.08h1.48V9.24h.07v1.48H41Zm1.83-6.56h1.48V4.16H42.77Z"/><path id="Path_4446" data-name="Path 4446" class="cls-1" d="M46.05,9.24V2.68h1.48v2.4H50a2.18,2.18,0,0,1,2.33,2,.81.81,0,0,1,0,.22v3.39H44.25V9.24Zm4.82,0V7.47c0-.61-.27-.91-.8-.91H47.52V9.24Z"/><path id="Path_4447" data-name="Path 4447" class="cls-1" d="M53.48,13.16V11.65h2c.29,0,.48-.06.55-.2a.56.56,0,0,0,.09-.31v-.42h-.34a2.19,2.19,0,0,1-2.33-2,1.69,1.69,0,0,1,0-.23V7.33a2.19,2.19,0,0,1,2.13-2.25h2V9.24h.08v1.48h-.08V11a2,2,0,0,1-1.81,2.21,1.7,1.7,0,0,1-.45,0Zm2.68-6.6h-.39c-.53,0-.81.3-.81.91v.84c0,.61.28.92.81.92h.39Z"/><path id="Path_4448" data-name="Path 4448" class="cls-1" d="M57.65,9.24h1.83V2.68H61v8H57.65Z"/><rect id="Rectangle_140568" data-name="Rectangle 140568" class="cls-1" x="62.08" y="2.68" width="1.48" height="8.04"/><path id="Path_4449" data-name="Path 4449" class="cls-1" d="M72.28,5.08V9.24h.09v1.48H70.8V6.9c-1.07.36-1.88,1.78-2.26,3.82H67c.31-3.46,2.35-5.45,5.26-5.64m-3.59-2.4h1.5V4.16h-1.5Zm2.11,0h1.48V4.16H70.8Z"/><path id="Path_4450" data-name="Path 4450" class="cls-1" d="M72.28,10.72V9.24h1.84V7.34a2.19,2.19,0,0,1,2.11-2.26h2.06V9.24h.06v1.48H78a2.24,2.24,0,0,1-2.1,1.17H74.12V10.72Zm3.32-.33H76c.55,0,.81-.3.81-.91V6.56h-.37c-.55,0-.81.3-.81.91Z"/><path id="Path_4451" data-name="Path 4451" class="cls-1" d="M78.29,9.24h3.12V5.08h1.48V9.24H83v1.48H78.29Zm1,2.41h1.48v1.51H79.31Zm2.1,0h1.48v1.51H81.41Z"/><path id="Path_4452" data-name="Path 4452" class="cls-1" d="M87.7,9.24V7.47c0-.61-.26-.91-.78-.91h-2.2V5.08h2.15a2.2,2.2,0,0,1,2.34,2V9.23h.07v1.48H82.89V9.24Zm-2-6.56h1.49V4.16H85.74Z"/><path id="Path_4453" data-name="Path 4453" class="cls-1" d="M89.21,9.24H91V2.68h1.48v8H89.21Z"/><rect id="Rectangle_140569" data-name="Rectangle 140569" class="cls-1" x="93.64" y="2.68" width="1.48" height="8.04"/><path id="Path_4454" data-name="Path 4454" class="cls-1" d="M98.58,7.08h1.48v4.06c.06.42.18.51.64.51h2a.74.74,0,0,0,.58-.2.87.87,0,0,0,.06-.32V7.08h1.49V9.24h1.67V6.09H108V9.24h1.67V5.08h1.49v5.64h-6.31V11A2,2,0,0,1,103,13.16a2.26,2.26,0,0,1-.45,0h-1.73a2,2,0,0,1-2.26-1.74,1.77,1.77,0,0,1,0-.46Z"/><path id="Path_4455" data-name="Path 4455" class="cls-1" d="M113.71,0V.58h-.5c-.23,0-.36.13-.36.41s.14.33.4.33H114V1.9h-1.92V1.32h.32A.71.71,0,0,1,112.3,1a1,1,0,0,1,.92-1h.49Zm0,10.72h-1.48v-8h1.48Z"/><path id="Path_4456" data-name="Path 4456" class="cls-1" d="M114.63,11.7h.19c.73,0,1.1-.35,1.1-1V5.08h1.48v5.31a3.86,3.86,0,0,1,0,.51,2.76,2.76,0,0,1-.43,1.37,2,2,0,0,1-1.42.84c-.17,0-.41,0-.7,0h-.2Z"/><path id="Path_4457" data-name="Path 4457" class="cls-1" d="M130.73,9.24h.1v1.48h-7.74a2.18,2.18,0,0,1-2.27-2.1V5.67h1.49V8.43c0,.54.31.81.92.81h6V2.68h1.48Zm-4.27-4.67v.57H126c-.23,0-.36.15-.36.42s.12.34.39.34h.71v.58h-1.93V5.9h.34a1,1,0,0,1-.09-.33,1,1,0,0,1,.94-1,.08.08,0,0,1,.07,0Z"/><path id="Path_4458" data-name="Path 4458" class="cls-1" d="M130.73,9.24h1.83V5.08H134V9.24h.08v1.48h-3.39Zm1.83-6.56H134V4.16h-1.48Z"/><path id="Path_4459" data-name="Path 4459" class="cls-1" d="M134,9.24h1.83V5.08h1.48v5.64H134Zm1.83,2.41h1.48v1.51h-1.48Z"/></g></g></g></svg>